<svg xmlns="http://www.w3.org/2000/svg" width="149.023" height="24.345" viewBox="-8045.023 19.999 149.023 24.345"><g data-name="Multiple Layers (10)"><path d="M-8006.244 38.053c-.016.01-.033.02-.048.031l.048-.03" fill="#83c5be" fill-rule="evenodd" data-name="Tracé 1134"/><path d="M-8024.54 29.54a6.652 6.652 0 0 0-1.648-1.68 8.668 8.668 0 0 0-2.142-1.1c-.786-.278-1.631-.48-2.534-.606a20.498 20.498 0 0 0-2.827-.189h-11.332v17.898h11.358c.981 0 1.924-.064 2.826-.19a12.798 12.798 0 0 0 2.528-.605 8.47 8.47 0 0 0 2.13-1.107 6.837 6.837 0 0 0 1.64-1.68c.457-.66.81-1.435 1.063-2.326.252-.89.377-1.908.377-3.054 0-1.138-.125-2.15-.377-3.035-.253-.886-.606-1.66-1.062-2.326m-3.764 7.601a3.62 3.62 0 0 1-1.069 1.583c-.49.421-1.13.734-1.92.937-.791.205-1.756.307-2.893.307h-6.004V29.86h6.004c1.137 0 2.102.102 2.892.306.79.204 1.43.512 1.921.925.491.412.847.936 1.07 1.57.22.633.33 1.38.33 2.24 0 .86-.11 1.606-.33 2.24" fill="#83c5be" fill-rule="evenodd" data-name="Tracé 1135"/><path d="M-8004.336 27.164c-.916-.521-2.009-.906-3.276-1.153-1.268-.247-2.653-.371-4.155-.371-.765 0-1.563.032-2.397.097a46.3 46.3 0 0 0-2.474.261 39.202 39.202 0 0 0-4.404.84v4.299c.582-.226 1.23-.443 1.941-.652.712-.208 1.466-.39 2.26-.547a28.57 28.57 0 0 1 2.475-.37 24.466 24.466 0 0 1 2.599-.138c1.112 0 2.026.07 2.742.209.716.139 1.281.32 1.694.54.412.222.696.478.852.769.157.29.235.584.235.88v.377c-2.831.156-5.282.373-7.354.651-2.07.278-3.783.673-5.138 1.185-1.354.513-2.362 1.171-3.022 1.974-.66.803-.99 1.809-.99 3.016 0 .955.211 1.762.632 2.422.42.66.98 1.195 1.674 1.602.694.409 1.491.704 2.39.886.9.183 1.83.274 2.794.274.825 0 1.644-.046 2.456-.137a19.733 19.733 0 0 0 4.572-1.075c.707-.26 1.37-.56 1.986-.898v1.758h4.833V31.997c0-1.103-.26-2.054-.776-2.853-.516-.799-1.232-1.459-2.149-1.98m-1.908 10.889c-.015.01-.033.02-.048.031a7.29 7.29 0 0 1-.692.443c-.27.158-.554.31-.855.458a13.56 13.56 0 0 1-1.91.755c-.676.213-1.392.38-2.148.502-.755.121-1.529.182-2.32.182-.711 0-1.302-.043-1.77-.13-.47-.087-.845-.204-1.127-.352-.283-.147-.48-.32-.593-.515a1.193 1.193 0 0 1-.169-.605c0-.174.028-.365.085-.573.056-.209.206-.417.449-.625.243-.209.61-.413 1.1-.613.492-.2 1.167-.386 2.026-.56.86-.174 1.939-.326 3.237-.456s2.877-.23 4.735-.3v1.054c.701-.362 1.33-.865 1.754-1.516.297-.412.46-.904.603-1.41.017 1.735-.986 3.225-2.357 4.23" fill="#83c5be" fill-rule="evenodd" data-name="Tracé 1136"/><path d="M-8001.253 20h4.05v4.051h-4.05V20z" fill="#83c5be" fill-rule="evenodd" data-name="Rectangle 1656"/><path d="M-7998.61 25.965h4.833v17.898h-4.833V25.965z" fill="#83c5be" fill-rule="evenodd" data-name="Rectangle 1657"/><path d="M-7995.236 20h4.065v4.05h-4.065V20z" fill="#83c5be" fill-rule="evenodd" data-name="Rectangle 1658"/><path d="M-7970.746 38.822a9.178 9.178 0 0 0-1.583-1.706c-.586-.487-1.2-.897-1.842-1.232a11.934 11.934 0 0 0-1.948-.807 13.455 13.455 0 0 0-1.895-.45 11.914 11.914 0 0 0 3.204-1.296 11.413 11.413 0 0 0 1.628-1.165 8.692 8.692 0 0 0 1.44-1.583c.43-.603.79-1.287 1.08-2.052.292-.764.48-1.619.567-2.565h-4.923c-.088.86-.305 1.626-.651 2.299a6.934 6.934 0 0 1-1.303 1.777 7.764 7.764 0 0 1-1.772 1.303c-.66.356-1.348.647-2.064.873-.717.226-1.44.39-2.17.495-.729.104-1.428.156-2.096.156h-.99v-6.903h-4.833v17.897h4.833v-6.12c-.793-.227-1.636-.291-2.424-.084-.497.105-.947.36-1.393.639.978-1.1 2.381-1.573 3.817-1.584v-.002h1.432c.652 0 1.357.041 2.117.123.76.083 1.522.226 2.286.43.765.204 1.51.48 2.234.827a7.947 7.947 0 0 1 1.954 1.317 6.805 6.805 0 0 1 1.439 1.895c.383.734.617 1.586.704 2.559h4.924c-.087-1.042-.287-1.98-.6-2.813a9.561 9.561 0 0 0-1.172-2.228" fill="#83c5be" fill-rule="evenodd" data-name="Tracé 1137"/><path d="M-7947.663 27.906c-1.05-.79-2.325-1.387-3.823-1.791-1.498-.404-3.18-.605-5.047-.605-1.867 0-3.554.201-5.06.605-1.508.404-2.791 1.001-3.85 1.791a8.002 8.002 0 0 0-2.449 2.95c-.573 1.177-.86 2.534-.86 4.071s.287 2.894.86 4.07a7.997 7.997 0 0 0 2.448 2.95c1.06.791 2.343 1.389 3.85 1.792 1.507.404 3.194.605 5.06.605 1.868 0 3.55-.201 5.048-.605 1.498-.403 2.772-1 3.823-1.791a7.932 7.932 0 0 0 2.423-2.95c.564-1.177.846-2.534.846-4.07 0-1.538-.282-2.895-.846-4.071a7.936 7.936 0 0 0-2.423-2.95m-1.934 9.02c-.213.664-.59 1.261-1.134 1.791-.542.53-1.282.96-2.22 1.29-.938.329-2.132.494-3.582.494-.973 0-1.83-.075-2.567-.228-.738-.151-1.376-.36-1.914-.625a5.186 5.186 0 0 1-1.354-.931 4.597 4.597 0 0 1-.874-1.153 4.807 4.807 0 0 1-.462-1.296 6.754 6.754 0 0 1-.137-1.342c0-.433.046-.875.137-1.322a4.704 4.704 0 0 1 1.336-2.45c.364-.359.815-.674 1.354-.943.538-.27 1.176-.48 1.914-.632.738-.152 1.594-.228 2.567-.228 1.45 0 2.644.165 3.581.495.939.33 1.679.76 2.221 1.29.543.53.92 1.126 1.134 1.79a6.54 6.54 0 0 1 .319 2 6.54 6.54 0 0 1-.32 2" fill="#83c5be" fill-rule="evenodd" data-name="Tracé 1138"/><path d="M-7922.821 27.906c-1.051-.79-2.326-1.387-3.823-1.791-1.499-.404-3.181-.605-5.048-.605s-3.554.201-5.061.605c-1.506.404-2.79 1.001-3.85 1.791a8.008 8.008 0 0 0-2.448 2.95c-.573 1.177-.859 2.534-.859 4.071s.286 2.894.86 4.07a8.004 8.004 0 0 0 2.448 2.95c1.06.791 2.343 1.389 3.849 1.792 1.507.404 3.194.605 5.061.605s3.549-.201 5.048-.605c1.497-.403 2.772-1 3.823-1.791a7.958 7.958 0 0 0 2.423-2.95c.563-1.177.846-2.534.846-4.07 0-1.538-.283-2.895-.846-4.071a7.962 7.962 0 0 0-2.423-2.95m-1.934 9.02c-.213.664-.592 1.261-1.134 1.791-.543.53-1.284.96-2.221 1.29-.938.329-2.132.494-3.582.494-.972 0-1.829-.075-2.567-.228-.738-.151-1.376-.36-1.914-.625a5.213 5.213 0 0 1-1.354-.931 4.61 4.61 0 0 1-1.336-2.45 6.756 6.756 0 0 1-.137-1.34c0-.434.046-.876.137-1.323.092-.447.246-.877.462-1.29.218-.412.508-.799.874-1.159.364-.36.816-.675 1.354-.944.538-.27 1.176-.48 1.914-.632.738-.152 1.595-.228 2.567-.228 1.45 0 2.644.165 3.582.495.937.33 1.678.76 2.22 1.29.543.53.922 1.126 1.135 1.79.211.665.318 1.331.318 2s-.107 1.335-.318 2" fill="#83c5be" fill-rule="evenodd" data-name="Tracé 1139"/><path d="M-7896.527 29.124a5.373 5.373 0 0 0-1.518-1.941c-.66-.534-1.465-.946-2.416-1.237-.95-.291-2.03-.436-3.237-.436-.964 0-1.88.087-2.75.26-.867.174-1.688.4-2.46.677-.773.279-1.503.589-2.19.931-.685.344-1.332.689-1.939 1.036v-2.449h-4.833v17.898h4.833V32.635a13.294 13.294 0 0 1 1.725-1.225 15.223 15.223 0 0 1 4.195-1.739 8.696 8.696 0 0 1 2.077-.267c.868 0 1.578.107 2.13.32.551.212.98.512 1.29.898.307.387.519.852.631 1.394.113.543.17 1.148.17 1.817v10.03h4.819V31.67c0-.938-.176-1.787-.527-2.547" fill="#83c5be" fill-rule="evenodd" data-name="Tracé 1140"/></g></svg>