<svg xmlns="http://www.w3.org/2000/svg" width="23.044" height="32.268" viewBox="41.478 342.866 23.044 32.268"><g data-name="Groupe 1544" transform="translate(41.478 342.866)" clip-path="url(&quot;#a&quot;)"><g data-name="Tracé 1532"><path d="M.001 6.223c0-1.712.7-3.268 1.827-4.396A6.206 6.206 0 0 1 6.224 0H16.82c1.711 0 3.267.7 4.395 1.827a6.206 6.206 0 0 1 1.828 4.396v14.001c0 1.712-.7 3.268-1.828 4.396-.29.29-.61.552-.953.782v4.144c0 .75-.306 1.43-.8 1.923-.492.493-1.173.8-1.922.8H5.503c-.75 0-1.43-.307-1.923-.8a2.714 2.714 0 0 1-.8-1.923v-4.144a6.357 6.357 0 0 1-.953-.782A6.206 6.206 0 0 1 0 20.224V6.223h.001Zm18.75 19.916c-.609.2-1.258.308-1.93.308H6.224a6.156 6.156 0 0 1-1.93-.308v3.406c0 .332.136.634.355.853.22.22.522.356.855.356h12.038c.332 0 .634-.136.854-.356.22-.219.356-.521.356-.853v-3.406h-.001ZM7.868 20.224a.757.757 0 0 1-1.513 0v-9.2c0-.664-.272-1.27-.71-1.708a2.41 2.41 0 0 0-3.419 0 2.414 2.414 0 0 0-.712 1.708v9.2c0 1.294.53 2.472 1.385 3.326a4.76 4.76 0 0 0 1 .766l.016.009h.003c.684.388 1.471.61 2.308.61h10.597c1.295 0 2.472-.531 3.325-1.385a4.696 4.696 0 0 0 1.385-3.326V10.28a6.206 6.206 0 0 1-4.71 2.166H7.87v7.778l-.002.001ZM1.513 7.93a3.922 3.922 0 0 1 5.2.317 3.92 3.92 0 0 1 1.154 2.687h8.954c1.295 0 2.472-.53 3.325-1.384a4.696 4.696 0 0 0 1.385-3.326c0-1.295-.53-2.471-1.385-3.326a4.693 4.693 0 0 0-3.325-1.384H6.224c-1.295 0-2.471.53-3.326 1.384a4.696 4.696 0 0 0-1.385 3.326V7.93 7.93Z" fill="currentColor" fill-rule="evenodd"/><path d="M.001 6.223c0-1.712.7-3.268 1.827-4.396A6.206 6.206 0 0 1 6.224 0H16.82c1.711 0 3.267.7 4.395 1.827a6.206 6.206 0 0 1 1.828 4.396v14.001c0 1.712-.7 3.268-1.828 4.396-.29.29-.61.552-.953.782v4.144c0 .75-.306 1.43-.8 1.923-.492.493-1.173.8-1.922.8H5.503c-.75 0-1.43-.307-1.923-.8a2.714 2.714 0 0 1-.8-1.923v-4.144a6.357 6.357 0 0 1-.953-.782A6.206 6.206 0 0 1 0 20.224V6.223h.001Zm18.75 19.916c-.609.2-1.258.308-1.93.308H6.224a6.156 6.156 0 0 1-1.93-.308v3.406c0 .332.136.634.355.853.22.22.522.356.855.356h12.038c.332 0 .634-.136.854-.356.22-.219.356-.521.356-.853v-3.406h-.001ZM7.868 20.224a.757.757 0 0 1-1.513 0v-9.2c0-.664-.272-1.27-.71-1.708a2.41 2.41 0 0 0-3.419 0 2.414 2.414 0 0 0-.712 1.708v9.2c0 1.294.53 2.472 1.385 3.326a4.76 4.76 0 0 0 1 .766l.016.009h.003c.684.388 1.471.61 2.308.61h10.597c1.295 0 2.472-.531 3.325-1.385a4.696 4.696 0 0 0 1.385-3.326V10.28a6.206 6.206 0 0 1-4.71 2.166H7.87v7.778l-.002.001ZM1.513 7.93a3.922 3.922 0 0 1 5.2.317 3.92 3.92 0 0 1 1.154 2.687h8.954c1.295 0 2.472-.53 3.325-1.384a4.696 4.696 0 0 0 1.385-3.326c0-1.295-.53-2.471-1.385-3.326a4.693 4.693 0 0 0-3.325-1.384H6.224c-1.295 0-2.471.53-3.326 1.384a4.696 4.696 0 0 0-1.385 3.326V7.93 7.93Z" stroke-linejoin="round" stroke-linecap="round" stroke="current" fill="current"/></g></g><defs><clipPath id="a"><path d="M0 0h23.044v32.268H0V0z" data-name="Rectangle 1796"/></clipPath></defs></svg>