<svg xmlns="http://www.w3.org/2000/svg" width="27.05" height="26.156" viewBox="-8743.525 551.422 27.05 26.156"><g data-name="Multiple Layers (5)"><path d="M-8736.013 577.578c-.195 0-.429-.04-.584-.156-.35-.194-.545-.584-.545-.973v-4.67a1.13 1.13 0 0 1 2.257 0v2.724l6.812-3.659c.545-.311 1.245-.078 1.557.467.31.545.077 1.246-.468 1.557l-8.446 4.554c-.194.117-.389.156-.583.156" fill-rule="evenodd" data-name="Tracé 1538"/><path d="M-8724.999 572.985h-2.568a1.13 1.13 0 0 1 0-2.257h2.568a6.18 6.18 0 0 0 6.19-6.189v-4.632a6.18 6.18 0 0 0-6.19-6.188h-10.08a6.18 6.18 0 0 0-6.189 6.188v4.593c0 3.114 2.296 5.722 5.41 6.15.623.078 1.09.661 1.012 1.284-.078.623-.661 1.09-1.284 1.012-4.243-.545-7.395-4.165-7.395-8.446v-4.593c0-4.67 3.814-8.485 8.485-8.485h10.08c4.671 0 8.485 3.815 8.485 8.485v4.593c-.039 4.71-3.814 8.485-8.524 8.485" fill-rule="evenodd" data-name="Tracé 1539"/><path d="M-8735.313 563.371h-.934a1.13 1.13 0 0 1 0-2.257h.934a1.13 1.13 0 0 1 1.129 1.129c0 .622-.467 1.128-1.129 1.128" fill-rule="evenodd" data-name="Tracé 1540"/><path d="M-8729.552 563.371h-.935a1.13 1.13 0 0 1 0-2.257h.935a1.13 1.13 0 0 1 0 2.257" fill-rule="evenodd" data-name="Tracé 1541"/><path d="M-8723.83 563.371h-.935a1.13 1.13 0 0 1 0-2.257h.934a1.13 1.13 0 0 1 0 2.257" fill-rule="evenodd" data-name="Tracé 1542"/></g></svg>