<svg xmlns="http://www.w3.org/2000/svg" width="34.828" height="26.754" viewBox="-8748.414 483.123 34.828 26.754"><g data-name="Multiple Layers (4)"><g data-name="Tracé 1534"><path d="M-8737.42 483.123c3.599 0 6.42 2.919 6.42 6.421 0 3.6-2.919 6.518-6.42 6.518-3.6 0-6.422-2.918-6.422-6.518 0-3.502 2.822-6.42 6.421-6.42m0 2.237c-2.335 0-4.28 1.848-4.28 4.183s1.945 4.28 4.28 4.28 4.183-1.945 4.183-4.28a4.152 4.152 0 0 0-4.183-4.183" fill-rule="evenodd"/><path d="M-8737.42 483.123c3.599 0 6.42 2.919 6.42 6.421 0 3.6-2.919 6.518-6.42 6.518-3.6 0-6.422-2.918-6.422-6.518 0-3.502 2.822-6.42 6.421-6.42m0 2.237c-2.335 0-4.28 1.848-4.28 4.183s1.945 4.28 4.28 4.28 4.183-1.945 4.183-4.28a4.152 4.152 0 0 0-4.183-4.183" stroke-linejoin="round" stroke-linecap="round" stroke-width=".2" stroke="#000" fill="transparent"/></g><g data-name="Tracé 1537"><path d="M-8726.622 499.565c-.584.291-1.265.194-1.557-.39-.292-.486-.097-1.167.39-1.459a9.4 9.4 0 0 1 4.864-1.362c5.156 0 9.34 4.183 9.34 9.34a1.08 1.08 0 0 1-1.071 1.07c-.68 0-1.167-.487-1.167-1.07a7.08 7.08 0 0 0-7.102-7.102c-1.362 0-2.627.292-3.697.973" fill-rule="evenodd"/><path d="M-8726.622 499.565c-.584.291-1.265.194-1.557-.39-.292-.486-.097-1.167.39-1.459a9.4 9.4 0 0 1 4.864-1.362c5.156 0 9.34 4.183 9.34 9.34a1.08 1.08 0 0 1-1.071 1.07c-.68 0-1.167-.487-1.167-1.07a7.08 7.08 0 0 0-7.102-7.102c-1.362 0-2.627.292-3.697.973" stroke-linejoin="round" stroke-linecap="round" stroke-width=".2" stroke="#000" fill="transparent"/></g><g data-name="Tracé 1536"><path d="M-8722.925 484.096c3.016 0 5.545 2.53 5.545 5.545 0 3.113-2.53 5.643-5.545 5.643-3.113 0-5.546-2.53-5.546-5.643 0-3.016 2.433-5.545 5.546-5.545m0 2.238c-1.849 0-3.405 1.459-3.405 3.307 0 1.849 1.556 3.405 3.405 3.405 1.848 0 3.307-1.556 3.307-3.405a3.28 3.28 0 0 0-3.307-3.307" fill-rule="evenodd"/><path d="M-8722.925 484.096c3.016 0 5.545 2.53 5.545 5.545 0 3.113-2.53 5.643-5.545 5.643-3.113 0-5.546-2.53-5.546-5.643 0-3.016 2.433-5.545 5.546-5.545m0 2.238c-1.849 0-3.405 1.459-3.405 3.307 0 1.849 1.556 3.405 3.405 3.405 1.848 0 3.307-1.556 3.307-3.405a3.28 3.28 0 0 0-3.307-3.307" stroke-linejoin="round" stroke-linecap="round" stroke-width=".2" stroke="#000" fill="transparent"/></g><g data-name="Tracé 1535"><path d="M-8746.177 508.71c0 .68-.486 1.167-1.167 1.167-.584 0-1.07-.487-1.07-1.168 0-6.031 4.961-10.993 10.993-10.993s10.993 4.962 10.993 10.993c0 .681-.486 1.168-1.167 1.168-.584 0-1.07-.487-1.07-1.168 0-4.767-3.892-8.755-8.756-8.755-4.864 0-8.756 3.988-8.756 8.755" fill-rule="evenodd"/><path d="M-8746.177 508.71c0 .68-.486 1.167-1.167 1.167-.584 0-1.07-.487-1.07-1.168 0-6.031 4.961-10.993 10.993-10.993s10.993 4.962 10.993 10.993c0 .681-.486 1.168-1.167 1.168-.584 0-1.07-.487-1.07-1.168 0-4.767-3.892-8.755-8.756-8.755-4.864 0-8.756 3.988-8.756 8.755" stroke-linejoin="round" stroke-linecap="round" stroke-width=".2" stroke="#000" fill="transparent"/></g></g></svg>