<svg xmlns="http://www.w3.org/2000/svg" width="31.419" height="28.407" viewBox="-0.1 -0.1 31.419 28.407">
    <g data-name="Tracé 1149">
        <path
            d="M28.912 3.286C27.106 1.198 24.52 0 21.818 0c-2.233 0-4.383.835-6.108 2.36C13.985.836 11.834 0 9.602 0 6.9 0 4.314 1.198 2.507 3.286.474 5.636-.365 8.864.146 12.375c1.1 7.566 8.263 12.152 14.89 15.856.098.055.202.097.31.127l.02.05h.344c.258 0 .51-.073.73-.209l.277-.172c6.328-3.935 13.5-8.395 14.556-15.652.51-3.511-.328-6.739-2.36-9.09m-.372 8.692c-.385 2.646-1.873 5.119-4.549 7.56-2.39 2.178-5.516 4.144-8.317 5.886-2.728-1.544-5.796-3.413-8.21-5.64-2.683-2.473-4.184-5.026-4.588-7.806-.393-2.706.217-5.151 1.717-6.886C5.876 3.609 7.701 2.76 9.602 2.76h.08c1.887.024 3.65.896 4.974 2.462.254.301.638.475 1.053.475.416 0 .8-.173 1.054-.475C18.106 3.634 19.9 2.76 21.817 2.76c1.9 0 3.725.85 5.007 2.331 1.5 1.735 2.11 4.18 1.717 6.887"
            fill="currentColor" fill-rule="evenodd" />
        <path
            d="M28.912 3.286C27.106 1.198 24.52 0 21.818 0c-2.233 0-4.383.835-6.108 2.36C13.985.836 11.834 0 9.602 0 6.9 0 4.314 1.198 2.507 3.286.474 5.636-.365 8.864.146 12.375c1.1 7.566 8.263 12.152 14.89 15.856.098.055.202.097.31.127l.02.05h.344c.258 0 .51-.073.73-.209l.277-.172c6.328-3.935 13.5-8.395 14.556-15.652.51-3.511-.328-6.739-2.36-9.09m-.372 8.692c-.385 2.646-1.873 5.119-4.549 7.56-2.39 2.178-5.516 4.144-8.317 5.886-2.728-1.544-5.796-3.413-8.21-5.64-2.683-2.473-4.184-5.026-4.588-7.806-.393-2.706.217-5.151 1.717-6.886C5.876 3.609 7.701 2.76 9.602 2.76h.08c1.887.024 3.65.896 4.974 2.462.254.301.638.475 1.053.475h0c.416 0 .8-.173 1.054-.475C18.106 3.634 19.9 2.76 21.817 2.76c1.9 0 3.725.85 5.007 2.331 1.5 1.735 2.11 4.18 1.717 6.887"
            stroke-linejoin="round" stroke-linecap="round" stroke-width=".2" stroke="#e0e1ff" fill="transparent" />
    </g>
</svg>