<svg xmlns="http://www.w3.org/2000/svg" width="28.58" height="31.755" viewBox="5765.71 412.123 28.58 31.755"><g data-name="Multiple Layers (4)"><g data-name="Tracé 1574"><path d="M5791.354 418.992h-4.232v-1.855c0-2.765-2.257-5.014-5.033-5.014h-11.347c-2.775 0-5.032 2.249-5.032 5.014v21.727c0 2.764 2.257 5.013 5.032 5.013h11.347c2.775 0 5.033-2.249 5.033-5.013v-6.202h4.232a2.933 2.933 0 0 0 2.935-2.925v-7.82a2.933 2.933 0 0 0-2.935-2.925m-5.909 19.872a3.353 3.353 0 0 1-3.355 3.342h-11.348c-1.85 0-3.355-1.5-3.355-3.342v-21.727a3.353 3.353 0 0 1 3.355-3.343h11.347c1.85 0 3.356 1.5 3.356 3.343v1.855h-6.364a2.934 2.934 0 0 0-2.936 2.925v7.82c0 1.613 1.231 2.925 2.743 2.925h1.17v3.861l3.917-3.861h1.47v6.202Zm7.167-9.127c0 .692-.564 1.254-1.258 1.254h-7.602c-.02 0-.04.004-.058.005a.84.84 0 0 0-.653.236l-1.305 1.287v-.693a.837.837 0 0 0-.838-.835c-.019 0-.036.004-.054.006-.018-.002-.035-.006-.053-.006h-1.903c-.578 0-1.065-.574-1.065-1.254v-7.82c0-.69.564-1.253 1.258-1.253h12.272c.694 0 1.259.562 1.259 1.254v7.819Z" fill-rule="evenodd"/><path d="M5791.354 418.992h-4.232v-1.855c0-2.765-2.257-5.014-5.033-5.014h-11.347c-2.775 0-5.032 2.249-5.032 5.014v21.727c0 2.764 2.257 5.013 5.032 5.013h11.347c2.775 0 5.033-2.249 5.033-5.013v-6.202h4.232a2.933 2.933 0 0 0 2.935-2.925v-7.82a2.933 2.933 0 0 0-2.935-2.925m-5.909 19.872a3.353 3.353 0 0 1-3.355 3.342h-11.348c-1.85 0-3.355-1.5-3.355-3.342v-21.727a3.353 3.353 0 0 1 3.355-3.343h11.347c1.85 0 3.356 1.5 3.356 3.343v1.855h-6.364a2.934 2.934 0 0 0-2.936 2.925v7.82c0 1.613 1.231 2.925 2.743 2.925h1.17v3.861l3.917-3.861h1.47v6.202h0Zm7.167-9.127c0 .692-.564 1.254-1.258 1.254h-7.602c-.02 0-.04.004-.058.005a.84.84 0 0 0-.653.236l-1.305 1.287v-.693a.837.837 0 0 0-.838-.835c-.019 0-.036.004-.054.006-.018-.002-.035-.006-.053-.006h-1.903c-.578 0-1.065-.574-1.065-1.254v-7.82c0-.69.564-1.253 1.258-1.253h12.272c.694 0 1.259.562 1.259 1.254v7.819h0Z" stroke-linejoin="round" stroke-linecap="round" stroke-width=".5" stroke="#000" fill="transparent"/></g><g data-name="Tracé 1575"><path d="M5788.607 423.325h-7.71a.837.837 0 0 0-.839.835c0 .461.376.836.84.836h7.71a.837.837 0 1 0 0-1.67" fill-rule="evenodd"/><path d="M5788.607 423.325h-7.71a.837.837 0 0 0-.839.835c0 .461.376.836.84.836h7.71a.837.837 0 1 0 0-1.67" stroke-linejoin="round" stroke-linecap="round" stroke-width=".5" stroke="#000" fill="transparent"/></g><g data-name="Tracé 1576"><path d="M5784.752 427.085h-3.854a.837.837 0 0 0-.84.836c0 .46.376.836.84.836h3.854c.463 0 .84-.375.84-.836a.837.837 0 0 0-.84-.836" fill-rule="evenodd"/><path d="M5784.752 427.085h-3.854a.837.837 0 0 0-.84.836c0 .46.376.836.84.836h3.854c.463 0 .84-.375.84-.836a.837.837 0 0 0-.84-.836" stroke-linejoin="round" stroke-linecap="round" stroke-width=".5" stroke="#000" fill="transparent"/></g><g data-name="Tracé 1577"><path d="M5776.731 438.039c.534 0 .968.431.968.964a.966.966 0 0 1-.968.964.966.966 0 0 1-.968-.964c0-.533.434-.964.968-.964" fill-rule="evenodd"/><path d="M5776.731 438.039c.534 0 .968.431.968.964a.966.966 0 0 1-.968.964.966.966 0 0 1-.968-.964c0-.533.434-.964.968-.964" stroke-linejoin="round" stroke-linecap="round" stroke-width=".5" stroke="#000" fill="transparent"/></g></g></svg>