<svg xmlns="http://www.w3.org/2000/svg" width="28.052" height="28.407" viewBox="-91.93 -103.934 28.052 28.407"><g data-name="Tracé 1503"><path d="M-67.359-75.176H-87.77a3.816 3.816 0 0 1-3.81-3.81l.022-11.158a3.16 3.16 0 0 1 1.08-2.36l12.124-10.77a1.23 1.23 0 0 1 1.631 0l12.13 10.763a3.16 3.16 0 0 1 1.065 2.376l-.021 11.152a3.813 3.813 0 0 1-3.81 3.807Zm-21.5-15.488a.695.695 0 0 0-.238.523l-.021 11.158a1.348 1.348 0 0 0 1.348 1.345h20.411a1.35 1.35 0 0 0 1.348-1.348l.021-11.152a.708.708 0 0 0-.236-.53l-11.328-10.028-11.306 10.032Z" fill="currentColor" fill-rule="evenodd"/><path d="M-67.359-75.176H-87.77a3.816 3.816 0 0 1-3.81-3.81l.022-11.158a3.16 3.16 0 0 1 1.08-2.36h0l12.124-10.77a1.23 1.23 0 0 1 1.631 0l12.13 10.763a3.16 3.16 0 0 1 1.065 2.376l-.021 11.152a3.813 3.813 0 0 1-3.81 3.807Zm-21.5-15.488a.695.695 0 0 0-.238.523l-.021 11.158a1.348 1.348 0 0 0 1.348 1.345h20.411a1.35 1.35 0 0 0 1.348-1.348l.021-11.152a.708.708 0 0 0-.236-.53l-11.328-10.028-11.306 10.032Z" stroke-linejoin="round" stroke-linecap="round" stroke-width=".7" stroke="currentColor" fill="transparent"/></g></svg>