<svg xmlns="http://www.w3.org/2000/svg" width="32.766" height="30.395" viewBox="-4568.579 577.357 32.766 30.395">
    <g data-name="Multiple Layers (2)">
        <path
            d="m-4546.606 607.64-15.544-.272a6.438 6.438 0 0 1-6.317-6.541l.271-15.545a6.438 6.438 0 0 1 6.542-6.317l15.544.271a6.438 6.438 0 0 1 6.317 6.542l-.27 15.544a6.438 6.438 0 0 1-6.543 6.317m-15.104-25.452a3.212 3.212 0 0 0-3.264 3.152l-.271 15.544a3.212 3.212 0 0 0 3.151 3.263l15.545.271a3.212 3.212 0 0 0 3.263-3.15l.271-15.545a3.212 3.212 0 0 0-3.151-3.264l-15.544-.27Z"
            fill="currentColor" fill-rule="evenodd" data-name="Tracé 1150" />
        <path d="M-4551.883 585.273a7.967 7.967 1 1 1-.002.1z" fill="#eb0e8d" fill-rule="evenodd"
            data-name="Ellipse 16" />
    </g>
</svg>