<svg xmlns="http://www.w3.org/2000/svg" width="28.554" height="28.8" viewBox="-8437.032 1126.522 28.554 28.8"><g data-name="Multiple Layers (2)"><path d="M-8422.645 1143.713a8.522 8.522 0 1 0 .298-17.042 8.522 8.522 0 0 0-.298 17.042Zm.248-14.202a5.681 5.681 0 1 1-.198 11.361 5.681 5.681 0 0 1 .198-11.36Z" fill="currentColor" fill-rule="evenodd" data-name="Tracé 1507"/><path d="m-8408.886 1153.044-1.108-1.596a11.746 11.746 0 0 0-9.32-4.836l-6.973-.122a11.633 11.633 0 0 0-10.58 6.28 1.42 1.42 0 0 0 2.52 1.307 8.806 8.806 0 0 1 8.01-4.747l6.973.122a8.891 8.891 0 0 1 7.04 3.66l1.15 1.597a1.42 1.42 0 1 0 2.302-1.664Z" fill="currentColor" fill-rule="evenodd" data-name="Tracé 1508"/></g></svg>