<svg xmlns="http://www.w3.org/2000/svg" width="28.871" height="28.407">
    <path
        d="m28.376 25.52-5.95-5.95c-.044-.043-.092-.076-.139-.113 3.452-4.806 3.031-11.534-1.29-15.855A12.263 12.263 0 0 0 12.3 0C9.153 0 6.005 1.2 3.603 3.602c-4.804 4.804-4.804 12.591 0 17.395A12.26 12.26 0 0 0 12.3 24.6c2.723 0 5.443-.903 7.684-2.7.017.02.03.042.05.06l5.95 5.951c.33.331.763.496 1.196.496a1.692 1.692 0 0 0 1.196-2.887ZM12.3 21.218a8.862 8.862 0 0 1-6.307-2.612c-3.477-3.478-3.477-9.135 0-12.612A8.862 8.862 0 0 1 12.3 3.38c2.382 0 4.621.928 6.306 2.613 3.477 3.477 3.477 9.134 0 12.612a8.86 8.86 0 0 1-6.306 2.612"
        fill="currentColor" fill-rule="evenodd" data-name="Tracé 1148" />
</svg>